<svg id="Capa_1" enable-background="new 0 0 512 512" height="512" viewBox="0 0 512 512" width="512" xmlns="http://www.w3.org/2000/svg" xmlns:xlink="http://www.w3.org/1999/xlink"><linearGradient id="SVGID_1_" gradientUnits="userSpaceOnUse" x1="256" x2="256" y1="512" y2="0"><stop offset="0" stop-color="#75aed7"/><stop offset="1" stop-color="#75aed7"/></linearGradient><g><g><path d="m256 0c-140.951 0-256 115.041-256 256 0 140.95 115.041 256 256 256 140.95 0 256-115.041 256-256 0-140.951-115.041-256-256-256zm0 482c-124.617 0-226-101.383-226-226s101.383-226 226-226 226 101.383 226 226-101.383 226-226 226zm165-286h-105v-105c0-8.284-6.716-15-15-15h-90c-8.284 0-15 6.716-15 15v105h-105c-8.284 0-15 6.716-15 15v90c0 8.284 6.716 15 15 15h105v105c0 8.284 6.716 15 15 15h90c8.284 0 15-6.716 15-15v-105h105c8.284 0 15-6.716 15-15v-90c0-8.284-6.716-15-15-15zm-15 90h-105c-8.284 0-15 6.716-15 15v105h-60v-105c0-8.284-6.716-15-15-15h-105v-60h105c8.284 0 15-6.716 15-15v-105h60v105c0 8.284 6.716 15 15 15h105z" fill="url(#SVGID_1_)"/></g></g></svg>